<svg xmlns="http://www.w3.org/2000/svg" xmlns:xlink="http://www.w3.org/1999/xlink" width="1024" zoomAndPan="magnify" viewBox="0 0 768 585.000005" height="780" preserveAspectRatio="xMidYMid meet" version="1.0"><defs><clipPath id="f98923b30f"><path d="M 0.65625 0 L 767.34375 0 L 767.34375 584 L 0.65625 584 Z M 0.65625 0 " clip-rule="nonzero"/></clipPath><clipPath id="211f4a117d"><path d="M 0.65625 435 L 307.628906 435 L 307.628906 583.871094 L 0.65625 583.871094 Z M 0.65625 435 " clip-rule="nonzero"/></clipPath><clipPath id="9b4dfc24a9"><path d="M 0.65625 421 L 307.628906 421 L 307.628906 583.871094 L 0.65625 583.871094 Z M 0.65625 421 " clip-rule="nonzero"/></clipPath><clipPath id="9efb765643"><path d="M 0.65625 402.679688 L 307.628906 402.679688 L 307.628906 583.871094 L 0.65625 583.871094 Z M 0.65625 402.679688 " clip-rule="nonzero"/></clipPath><clipPath id="fd67af798b"><path d="M 460.363281 0.128906 L 767.339844 0.128906 L 767.339844 149 L 460.363281 149 Z M 460.363281 0.128906 " clip-rule="nonzero"/></clipPath><clipPath id="7790230d86"><path d="M 460.363281 0.128906 L 767.339844 0.128906 L 767.339844 163 L 460.363281 163 Z M 460.363281 0.128906 " clip-rule="nonzero"/></clipPath><clipPath id="e508a2d0b9"><path d="M 460.363281 0.128906 L 767.339844 0.128906 L 767.339844 181.320312 L 460.363281 181.320312 Z M 460.363281 0.128906 " clip-rule="nonzero"/></clipPath></defs><g clip-path="url(#f98923b30f)"><path fill="#ffffff" d="M 0.65625 0 L 767.34375 0 L 767.34375 584 L 0.65625 584 Z M 0.65625 0 " fill-opacity="1" fill-rule="nonzero"/><path fill="#e7eaf1" d="M 0.65625 0 L 767.34375 0 L 767.34375 584 L 0.65625 584 Z M 0.65625 0 " fill-opacity="1" fill-rule="nonzero"/></g><g clip-path="url(#211f4a117d)"><path fill="#025b9f" d="M 0.65625 435.96875 C 24.71875 463.007812 63.871094 500.410156 120.792969 531.1875 C 196.640625 572.199219 267.28125 581.574219 307.628906 583.84375 L 0.65625 583.84375 Z M 0.65625 435.96875 " fill-opacity="1" fill-rule="nonzero"/></g><g clip-path="url(#9b4dfc24a9)"><path fill="#0173b7" d="M 0.65625 421.058594 C 29.699219 506.027344 65.433594 532.050781 93.339844 539.683594 C 125.542969 548.492188 146.363281 532.539062 191.816406 535.753906 C 242.335938 539.324219 281.921875 563.644531 307.628906 583.84375 L 0.65625 583.84375 Z M 0.65625 421.058594 " fill-opacity="0.5" fill-rule="nonzero"/></g><g clip-path="url(#9efb765643)"><path fill="#0483cc" d="M 0.65625 402.707031 C 23.96875 479.035156 56.152344 505.542969 82.835938 514.78125 C 128.210938 530.488281 162.972656 498.097656 218.074219 512.8125 C 260.523438 524.152344 289.332031 556.574219 307.628906 583.84375 L 0.65625 583.84375 Z M 0.65625 402.707031 " fill-opacity="0.3" fill-rule="nonzero"/><path fill="#0695dd" d="M 0.65625 402.707031 C 28.175781 447.890625 66.863281 492.542969 117.628906 497.738281 C 173.386719 503.445312 208.488281 457.9375 249.585938 473.488281 C 271.335938 481.722656 295.726562 507.425781 307.628906 583.84375 L 0.65625 583.84375 Z M 0.65625 402.707031 " fill-opacity="0.2" fill-rule="nonzero"/></g><g clip-path="url(#fd67af798b)"><path fill="#025b9f" d="M 767.339844 148.03125 C 743.277344 120.988281 704.125 83.585938 647.203125 52.8125 C 571.351562 11.800781 500.714844 2.425781 460.363281 0.15625 L 767.339844 0.15625 Z M 767.339844 148.03125 " fill-opacity="1" fill-rule="nonzero"/></g><g clip-path="url(#7790230d86)"><path fill="#0173b7" d="M 767.339844 162.9375 C 738.296875 77.972656 702.5625 51.945312 674.65625 44.316406 C 642.453125 35.507812 621.628906 51.457031 576.179688 48.246094 C 525.660156 44.675781 486.074219 20.351562 460.363281 0.15625 L 767.339844 0.15625 Z M 767.339844 162.9375 " fill-opacity="0.5" fill-rule="nonzero"/></g><g clip-path="url(#e508a2d0b9)"><path fill="#0483cc" d="M 767.339844 181.289062 C 744.027344 104.960938 711.84375 78.453125 685.160156 69.21875 C 639.785156 53.507812 605.023438 85.902344 549.921875 71.183594 C 507.472656 59.847656 478.664062 27.421875 460.363281 0.15625 L 767.339844 0.15625 Z M 767.339844 181.289062 " fill-opacity="0.3" fill-rule="nonzero"/><path fill="#0695dd" d="M 767.339844 181.289062 C 739.820312 136.109375 701.132812 91.453125 650.363281 86.257812 C 594.609375 80.550781 559.503906 126.058594 518.410156 110.507812 C 496.660156 102.277344 472.269531 76.574219 460.363281 0.15625 L 767.339844 0.15625 Z M 767.339844 181.289062 " fill-opacity="0.2" fill-rule="nonzero"/></g></svg>