<svg xmlns="http://www.w3.org/2000/svg" xmlns:xlink="http://www.w3.org/1999/xlink" width="1423" zoomAndPan="magnify" viewBox="0 0 1067.25 608.249986" height="811" preserveAspectRatio="xMidYMid meet" version="1.0"><defs><clipPath id="8874780b98"><path d="M 0.28125 0 L 1066.21875 0 L 1066.21875 607.5 L 0.28125 607.5 Z M 0.28125 0 " clip-rule="nonzero"/></clipPath><clipPath id="c89a4f9d22"><path d="M 0.28125 453 L 319.390625 453 L 319.390625 607.5 L 0.28125 607.5 Z M 0.28125 453 " clip-rule="nonzero"/></clipPath><clipPath id="fad0b68b29"><path d="M 0.28125 438 L 319.390625 438 L 319.390625 607.5 L 0.28125 607.5 Z M 0.28125 438 " clip-rule="nonzero"/></clipPath><clipPath id="93af240a76"><path d="M 0.28125 418.882812 L 319.390625 418.882812 L 319.390625 607.5 L 0.28125 607.5 Z M 0.28125 418.882812 " clip-rule="nonzero"/></clipPath><clipPath id="0e18f4a15a"><path d="M 747.109375 0 L 1066.214844 0 L 1066.214844 154 L 747.109375 154 Z M 747.109375 0 " clip-rule="nonzero"/></clipPath><clipPath id="d1e8b1039c"><path d="M 747.109375 0 L 1066.214844 0 L 1066.214844 170 L 747.109375 170 Z M 747.109375 0 " clip-rule="nonzero"/></clipPath><clipPath id="36403e9e0e"><path d="M 747.109375 0 L 1066.214844 0 L 1066.214844 188.613281 L 747.109375 188.613281 Z M 747.109375 0 " clip-rule="nonzero"/></clipPath></defs><g clip-path="url(#8874780b98)"><path fill="#ffffff" d="M 0.28125 0 L 1066.21875 0 L 1066.21875 607.5 L 0.28125 607.5 Z M 0.28125 0 " fill-opacity="1" fill-rule="nonzero"/><path fill="#e7eaf1" d="M 0.28125 0 L 1066.21875 0 L 1066.21875 607.5 L 0.28125 607.5 Z M 0.28125 0 " fill-opacity="1" fill-rule="nonzero"/></g><g clip-path="url(#c89a4f9d22)"><path fill="#025b9f" d="M 0.28125 453.5625 C 25.296875 481.734375 65.996094 520.703125 125.167969 552.765625 C 204.015625 595.492188 277.445312 605.257812 319.390625 607.621094 L 0.28125 607.621094 Z M 0.28125 453.5625 " fill-opacity="1" fill-rule="nonzero"/></g><g clip-path="url(#fad0b68b29)"><path fill="#0173b7" d="M 0.28125 438.03125 C 30.472656 526.550781 67.621094 553.667969 96.628906 561.617188 C 130.105469 570.792969 151.75 554.171875 198.996094 557.519531 C 251.515625 561.238281 292.664062 586.582031 319.390625 607.621094 L 0.28125 607.621094 Z M 0.28125 438.03125 " fill-opacity="0.5" fill-rule="nonzero"/></g><g clip-path="url(#93af240a76)"><path fill="#0483cc" d="M 0.28125 418.914062 C 24.515625 498.433594 57.972656 526.050781 85.710938 535.671875 C 132.878906 552.039062 169.011719 518.289062 226.292969 533.621094 C 270.417969 545.433594 300.367188 579.214844 319.390625 607.621094 L 0.28125 607.621094 Z M 0.28125 418.914062 " fill-opacity="0.3" fill-rule="nonzero"/><path fill="#0695dd" d="M 0.28125 418.914062 C 28.890625 465.984375 69.109375 512.503906 121.878906 517.917969 C 179.839844 523.863281 216.332031 476.453125 259.050781 492.652344 C 281.660156 501.230469 307.011719 528.007812 319.390625 607.621094 L 0.28125 607.621094 Z M 0.28125 418.914062 " fill-opacity="0.2" fill-rule="nonzero"/></g><g clip-path="url(#0e18f4a15a)"><path fill="#025b9f" d="M 1066.214844 153.933594 C 1041.199219 125.761719 1000.503906 86.796875 941.332031 54.734375 C 862.484375 12.007812 789.054688 2.238281 747.109375 -0.125 L 1066.214844 -0.125 Z M 1066.214844 153.933594 " fill-opacity="1" fill-rule="nonzero"/></g><g clip-path="url(#d1e8b1039c)"><path fill="#0173b7" d="M 1066.214844 169.464844 C 1036.023438 80.949219 998.878906 53.832031 969.867188 45.882812 C 936.394531 36.707031 914.746094 53.324219 867.5 49.976562 C 814.984375 46.257812 773.832031 20.917969 747.109375 -0.125 L 1066.214844 -0.125 Z M 1066.214844 169.464844 " fill-opacity="0.5" fill-rule="nonzero"/></g><g clip-path="url(#36403e9e0e)"><path fill="#0483cc" d="M 1066.214844 188.585938 C 1041.980469 109.066406 1008.523438 81.449219 980.789062 71.828125 C 933.617188 55.460938 897.484375 89.207031 840.203125 73.875 C 796.078125 62.0625 766.132812 28.285156 747.109375 -0.125 L 1066.214844 -0.125 Z M 1066.214844 188.585938 " fill-opacity="0.3" fill-rule="nonzero"/><path fill="#0695dd" d="M 1066.214844 188.585938 C 1037.609375 141.515625 997.390625 94.992188 944.617188 89.578125 C 886.65625 83.632812 850.167969 131.046875 807.445312 114.84375 C 784.835938 106.269531 759.484375 79.488281 747.109375 -0.125 L 1066.214844 -0.125 Z M 1066.214844 188.585938 " fill-opacity="0.2" fill-rule="nonzero"/></g></svg>