<svg xmlns="http://www.w3.org/2000/svg" xmlns:xlink="http://www.w3.org/1999/xlink" width="1423" zoomAndPan="magnify" viewBox="0 0 1067.25 608.249986" height="811" preserveAspectRatio="xMidYMid meet" version="1.0"><defs><filter x="0%" y="0%" width="100%" height="100%" id="e0345bc811"><feColorMatrix values="0 0 0 0 1 0 0 0 0 1 0 0 0 0 1 0 0 0 1 0" color-interpolation-filters="sRGB"/></filter><clipPath id="ab6930d397"><path d="M 0.28125 0 L 1066.21875 0 L 1066.21875 607.5 L 0.28125 607.5 Z M 0.28125 0 " clip-rule="nonzero"/></clipPath><clipPath id="ff7139c2d5"><path d="M 0.28125 418 L 320 418 L 320 607.5 L 0.28125 607.5 Z M 0.28125 418 " clip-rule="nonzero"/></clipPath><mask id="8baa500538"><g filter="url(#e0345bc811)"><rect x="-106.725" width="1280.7" fill="#000000" y="-60.824999" height="729.899983" fill-opacity="0.58"/></g></mask><clipPath id="b79e46a67f"><path d="M 0.28125 35 L 319.390625 35 L 319.390625 189.5 L 0.28125 189.5 Z M 0.28125 35 " clip-rule="nonzero"/></clipPath><clipPath id="9409e1d4e9"><path d="M 0.28125 20 L 319.390625 20 L 319.390625 189.5 L 0.28125 189.5 Z M 0.28125 20 " clip-rule="nonzero"/></clipPath><clipPath id="5533f95cf9"><path d="M 0.28125 0.882812 L 319.390625 0.882812 L 319.390625 189.5 L 0.28125 189.5 Z M 0.28125 0.882812 " clip-rule="nonzero"/></clipPath><clipPath id="f4c505af3f"><rect x="0" width="320" y="0" height="190"/></clipPath><clipPath id="89cb49f31c"><path d="M 746 0 L 1066.21875 0 L 1066.21875 189 L 746 189 Z M 746 0 " clip-rule="nonzero"/></clipPath><mask id="538e15191f"><g filter="url(#e0345bc811)"><rect x="-106.725" width="1280.7" fill="#000000" y="-60.824999" height="729.899983" fill-opacity="0.58"/></g></mask><clipPath id="128b77c235"><path d="M 1.109375 0 L 320.214844 0 L 320.214844 154 L 1.109375 154 Z M 1.109375 0 " clip-rule="nonzero"/></clipPath><clipPath id="2796282422"><path d="M 1.109375 0 L 320.214844 0 L 320.214844 170 L 1.109375 170 Z M 1.109375 0 " clip-rule="nonzero"/></clipPath><clipPath id="71996321f4"><path d="M 1.109375 0 L 320.214844 0 L 320.214844 188.613281 L 1.109375 188.613281 Z M 1.109375 0 " clip-rule="nonzero"/></clipPath><clipPath id="3e5ef694c3"><rect x="0" width="321" y="0" height="189"/></clipPath></defs><g clip-path="url(#ab6930d397)"><path fill="#ffffff" d="M 0.28125 0 L 1066.21875 0 L 1066.21875 607.5 L 0.28125 607.5 Z M 0.28125 0 " fill-opacity="1" fill-rule="nonzero"/><path fill="#e7eaf1" d="M 0.28125 0 L 1066.21875 0 L 1066.21875 607.5 L 0.28125 607.5 Z M 0.28125 0 " fill-opacity="1" fill-rule="nonzero"/></g><g clip-path="url(#ff7139c2d5)"><g mask="url(#8baa500538)"><g transform="matrix(1, 0, 0, 1, 0, 418)"><g clip-path="url(#f4c505af3f)"><g clip-path="url(#b79e46a67f)"><path fill="#025b9f" d="M 0.28125 35.5625 C 25.296875 63.734375 65.996094 102.703125 125.167969 134.765625 C 204.015625 177.492188 277.445312 187.257812 319.390625 189.621094 L 0.28125 189.621094 Z M 0.28125 35.5625 " fill-opacity="1" fill-rule="nonzero"/></g><g clip-path="url(#9409e1d4e9)"><path fill="#0173b7" d="M 0.28125 20.03125 C 30.472656 108.550781 67.621094 135.667969 96.628906 143.617188 C 130.105469 152.792969 151.75 136.171875 198.996094 139.519531 C 251.515625 143.238281 292.664062 168.582031 319.390625 189.621094 L 0.28125 189.621094 Z M 0.28125 20.03125 " fill-opacity="0.5" fill-rule="nonzero"/></g><g clip-path="url(#5533f95cf9)"><path fill="#0483cc" d="M 0.28125 0.914062 C 24.515625 80.433594 57.972656 108.050781 85.710938 117.671875 C 132.878906 134.039062 169.011719 100.289062 226.292969 115.621094 C 270.417969 127.433594 300.367188 161.214844 319.390625 189.621094 L 0.28125 189.621094 Z M 0.28125 0.914062 " fill-opacity="0.3" fill-rule="nonzero"/><path fill="#0695dd" d="M 0.28125 0.914062 C 28.890625 47.984375 69.109375 94.503906 121.878906 99.917969 C 179.839844 105.863281 216.332031 58.453125 259.050781 74.652344 C 281.660156 83.230469 307.011719 110.007812 319.390625 189.621094 L 0.28125 189.621094 Z M 0.28125 0.914062 " fill-opacity="0.2" fill-rule="nonzero"/></g></g></g></g></g><g clip-path="url(#89cb49f31c)"><g mask="url(#538e15191f)"><g transform="matrix(1, 0, 0, 1, 746, 0)"><g clip-path="url(#3e5ef694c3)"><g clip-path="url(#128b77c235)"><path fill="#025b9f" d="M 320.214844 153.933594 C 295.199219 125.761719 254.503906 86.796875 195.332031 54.734375 C 116.484375 12.007812 43.054688 2.238281 1.109375 -0.125 L 320.214844 -0.125 Z M 320.214844 153.933594 " fill-opacity="1" fill-rule="nonzero"/></g><g clip-path="url(#2796282422)"><path fill="#0173b7" d="M 320.214844 169.464844 C 290.023438 80.949219 252.878906 53.832031 223.867188 45.882812 C 190.394531 36.707031 168.746094 53.324219 121.5 49.976562 C 68.984375 46.257812 27.832031 20.917969 1.109375 -0.125 L 320.214844 -0.125 Z M 320.214844 169.464844 " fill-opacity="0.5" fill-rule="nonzero"/></g><g clip-path="url(#71996321f4)"><path fill="#0483cc" d="M 320.214844 188.585938 C 295.980469 109.066406 262.523438 81.449219 234.789062 71.828125 C 187.617188 55.460938 151.484375 89.207031 94.203125 73.875 C 50.078125 62.0625 20.132812 28.285156 1.109375 -0.125 L 320.214844 -0.125 Z M 320.214844 188.585938 " fill-opacity="0.3" fill-rule="nonzero"/><path fill="#0695dd" d="M 320.214844 188.585938 C 291.609375 141.515625 251.390625 94.992188 198.617188 89.578125 C 140.65625 83.632812 104.167969 131.046875 61.445312 114.84375 C 38.835938 106.269531 13.484375 79.488281 1.109375 -0.125 L 320.214844 -0.125 Z M 320.214844 188.585938 " fill-opacity="0.2" fill-rule="nonzero"/></g></g></g></g></g></svg>