<svg xmlns="http://www.w3.org/2000/svg" width="1em" height="1em" viewBox="0 0 24 24"><path d="M23.716 9.52l-1.815-1.658v-5.17c0-0.467-0.456-0.793-0.864-0.793l-4.279-0.045c-0.437 0-0.793 0.356-0.793 0.793v0.601l-3.465-2.805c-0.291-0.237-0.712-0.237-0.999-0l-11.208 9.072c-0.338 0.275-0.392 0.775-0.119 1.118 0.151 0.187 0.378 0.294 0.62 0.294 0.184 0 0.361-0.063 0.497-0.177l0.842-0.68v12.872c0 0.437 0.357 0.793 0.795 0.793h6.363c0.461 0 0.836-0.375 0.836-0.836v-8.77h3.748v8.77c0 0.461 0.375 0.836 0.835 0.836h6.363c0.439 0 0.795-0.356 0.795-0.793v-12.872l0.841 0.68c0.166 0.133 0.373 0.195 0.585 0.173 0.195-0.022 0.374-0.115 0.497-0.253l0.036-0.038c0.268-0.337 0.218-0.834-0.112-1.112zM8.538 12.541v9.606h-4.817v-13.359l8.279-6.691 5.553 4.488v-3.139h2.726l0.007 18.701h-4.824v-9.606h-6.924z"></path></svg>