<svg xmlns="http://www.w3.org/2000/svg" width="1em" height="1em" viewBox="0 0 24 24"><path d="M3.672 8.424c-1.968 0-3.576 1.608-3.576 3.576s1.608 3.576 3.6 3.576 3.6-1.608 3.6-3.576c0-1.944-1.656-3.576-3.624-3.576zM3.672 10.272c0.96 0 1.728 0.768 1.728 1.728s-0.768 1.728-1.728 1.728-1.728-0.768-1.728-1.728 0.792-1.728 1.728-1.728zM20.328 8.424c-1.968 0-3.576 1.608-3.576 3.576 0 1.944 1.632 3.576 3.576 3.576s3.6-1.632 3.6-3.576c0-1.968-1.608-3.576-3.6-3.576zM22.056 12c0 0.96-0.768 1.728-1.728 1.728s-1.728-0.768-1.728-1.728 0.768-1.728 1.728-1.728 1.728 0.768 1.728 1.728zM12 8.424c-1.968 0-3.576 1.608-3.576 3.576 0 1.944 1.632 3.576 3.576 3.576s3.576-1.632 3.576-3.576c0-1.968-1.608-3.576-3.576-3.576zM13.728 12c0 0.96-0.768 1.728-1.728 1.728s-1.728-0.768-1.728-1.728 0.768-1.728 1.728-1.728c0.96 0 1.728 0.768 1.728 1.728z"></path></svg>