<svg xmlns="http://www.w3.org/2000/svg" width="1em" height="1em" viewBox="0 0 24 24"><path d="M22.553 20.267v-9.372c0.908-0.676 1.447-1.743 1.447-2.876 0-0.136-0.035-0.27-0.103-0.388l-2.686-4.702c-0.268-0.468-0.769-0.759-1.308-0.759h-15.806c-0.539 0-1.040 0.291-1.307 0.759l-2.687 4.701c-0.067 0.118-0.103 0.252-0.103 0.388 0 1.133 0.539 2.201 1.447 2.876v9.372c-0.404 0.030-0.724 0.368-0.724 0.78 0 0.431 0.351 0.782 0.782 0.782h20.989c0.431 0 0.782-0.351 0.782-0.782 0-0.412-0.32-0.75-0.724-0.78zM18.566 13.143v7.122h-2.779v-7.122h2.779zM2.129 7.237l2.001-3.502h15.739l2.001 3.502h-19.742zM22.279 8.801c-0.312 0.742-1.045 1.241-1.865 1.241s-1.553-0.499-1.865-1.241h3.73zM19.348 11.58h-4.115c0.935-0.112 1.788-0.587 2.376-1.326 0.676 0.851 1.705 1.351 2.804 1.351 0.193 0 0.386-0.015 0.575-0.046v8.706h-0.86v-7.904c0-0.431-0.351-0.781-0.782-0.781zM9.195 10.042c-0.82 0-1.553-0.499-1.865-1.241h3.73c-0.312 0.742-1.045 1.241-1.865 1.241zM14.805 10.042c-0.821 0-1.554-0.499-1.865-1.241h3.73c-0.312 0.742-1.044 1.241-1.865 1.241zM3.011 11.559c0.19 0.031 0.382 0.046 0.575 0.046 1.099 0 2.128-0.5 2.805-1.351 0.676 0.851 1.705 1.351 2.805 1.351s2.128-0.5 2.805-1.351c0.676 0.851 1.705 1.351 2.804 1.351 0.001 0 0.001 0 0.002 0-0.335 0.088-0.583 0.394-0.583 0.756v7.904h-11.212v-8.706zM5.451 8.801c-0.312 0.742-1.045 1.241-1.865 1.241s-1.554-0.499-1.865-1.241h3.73z"></path><path d="M11.843 12.415h-7.46c-0.419 0-0.759 0.341-0.759 0.759v5.25c0 0.419 0.341 0.759 0.759 0.759h7.46c0.419 0 0.759-0.341 0.759-0.759v-5.25c0-0.419-0.341-0.759-0.759-0.759zM5.142 17.665v-3.731h5.941v3.731h-5.941z"></path></svg>