<svg xmlns="http://www.w3.org/2000/svg" width="1em" height="1em" viewBox="0 0 24 24"><path d="M12 0.072v0c-6.576 0-11.928 5.352-11.928 11.928s5.352 11.928 11.928 11.928c6.576 0 11.928-5.352 11.928-11.928-0.024-6.552-5.376-11.904-11.928-11.928zM12.912 16.488v-3.528h4.152c-0.072 1.392-0.288 2.736-0.648 3.96-1.104-0.216-2.28-0.36-3.504-0.432zM18.84 19.416c-0.672 0.624-1.44 1.152-2.232 1.56 0.432-0.6 0.768-1.248 1.056-1.92 0.432 0.096 0.816 0.216 1.176 0.36zM12.912 21.912v-3.576c0.984 0.024 1.944 0.144 2.88 0.312-0.768 1.68-1.776 2.832-2.88 3.264zM22.008 12.96c-0.144 1.8-0.792 3.528-1.872 4.992-0.672-0.288-1.296-0.504-1.896-0.696 0.384-1.392 0.624-2.832 0.696-4.296h3.072zM17.064 11.112h-4.152v-3.576c1.104-0.048 2.256-0.168 3.504-0.384 0.384 1.272 0.6 2.592 0.648 3.96zM17.64 4.944c-0.264-0.672-0.624-1.32-1.008-1.944 0.816 0.432 1.56 0.936 2.208 1.56-0.408 0.168-0.792 0.288-1.2 0.384zM12.912 5.664v-3.576c1.104 0.408 2.136 1.584 2.88 3.264-0.984 0.192-1.944 0.288-2.88 0.312zM22.008 11.064h-3.096c-0.072-1.464-0.312-2.928-0.696-4.344 0.6-0.168 1.224-0.384 1.896-0.648 1.080 1.464 1.728 3.168 1.896 4.992zM5.76 6.744c-0.384 1.392-0.624 2.832-0.696 4.296h-3.072c0.144-1.8 0.792-3.528 1.872-4.992 0.648 0.288 1.296 0.504 1.896 0.696zM6.936 12.888h4.152v3.552c-1.104 0.048-2.256 0.168-3.504 0.384-0.384-1.272-0.6-2.592-0.648-3.936zM6.336 19.008c0.264 0.672 0.624 1.344 1.056 1.968-0.816-0.408-1.584-0.96-2.256-1.584 0.384-0.144 0.768-0.288 1.2-0.384zM5.112 12.936c0.024 1.44 0.264 2.88 0.672 4.344-0.648 0.168-1.272 0.384-1.872 0.624-1.056-1.464-1.704-3.168-1.872-4.992l3.072 0.024zM5.16 4.584c0.672-0.6 1.416-1.128 2.184-1.536-0.408 0.6-0.744 1.224-1.032 1.92-0.384-0.12-0.768-0.24-1.152-0.384zM11.064 7.512v3.528h-4.128c0.072-1.392 0.288-2.736 0.648-3.96 1.104 0.216 2.256 0.36 3.48 0.432zM8.184 5.352c0.768-1.68 1.776-2.856 2.88-3.264v3.552c-0.984 0-1.944-0.12-2.88-0.288zM11.064 18.336v3.6c-1.104-0.408-2.136-1.584-2.88-3.288 0.96-0.168 1.944-0.288 2.88-0.312z"></path></svg>