<svg xmlns="http://www.w3.org/2000/svg" xmlns:xlink="http://www.w3.org/1999/xlink" width="128" zoomAndPan="magnify" viewBox="0 0 96 95.999999" height="128" preserveAspectRatio="xMidYMid meet" version="1.0"><path stroke-linecap="round" transform="matrix(0, 0.75, -0.75, 0, 34.406033, 40.424045)" fill="none" stroke-linejoin="miter" d="M 2.002316 1.99971 L 43.637734 1.99971 " stroke="#ff3131" stroke-width="4" stroke-opacity="1" stroke-miterlimit="4"/><path stroke-linecap="round" transform="matrix(0, 0.75, -0.75, 0, 47.994548, 40.424045)" fill="none" stroke-linejoin="miter" d="M 2.002316 1.997939 L 43.637734 1.997939 " stroke="#ff3131" stroke-width="4" stroke-opacity="1" stroke-miterlimit="4"/><path stroke-linecap="round" transform="matrix(0, 0.75, -0.75, 0, 60.360722, 40.424045)" fill="none" stroke-linejoin="miter" d="M 2.002316 2.001796 L 43.637734 2.001796 " stroke="#ff3131" stroke-width="4" stroke-opacity="1" stroke-miterlimit="4"/><path stroke-linecap="butt" transform="matrix(0, 0.75, -0.75, 0, 24.27253, 25.025477)" fill="none" stroke-linejoin="miter" d="M 0.00248834 1.99879 L 66.169158 1.99879 " stroke="#ff3131" stroke-width="4" stroke-opacity="1" stroke-miterlimit="4"/><path stroke-linecap="butt" transform="matrix(0, 0.75, -0.75, 0, 70.253742, 25.025477)" fill="none" stroke-linejoin="miter" d="M 0.00248834 1.999782 L 66.169158 1.999782 " stroke="#ff3131" stroke-width="4" stroke-opacity="1" stroke-miterlimit="4"/><path stroke-linecap="butt" transform="matrix(0.75, 0, 0, 0.75, 21.278113, 74.648245)" fill="none" stroke-linejoin="miter" d="M 1.998975 0.000257317 L 1.998975 9.401299 C 1.998975 11.890883 2.988558 14.281508 4.754183 16.047133 C 6.5146 17.80755 8.905225 18.802342 11.400017 18.802342 L 53.910436 18.802342 C 56.400019 18.802342 58.790644 17.80755 60.556269 16.047133 C 62.316686 14.281508 63.30627 11.890883 63.30627 9.401299 L 63.30627 0.000257317 " stroke="#ff3131" stroke-width="4" stroke-opacity="1" stroke-miterlimit="4"/><path stroke-linecap="butt" transform="matrix(0.75, 0, 0, 0.75, 32.639999, 23.519894)" fill="none" stroke-linejoin="miter" d="M 0.000834933 1.999516 L 40.95917 1.999516 " stroke="#ff3131" stroke-width="4" stroke-opacity="1" stroke-miterlimit="4"/><path stroke-linecap="butt" transform="matrix(0.75, 0, 0, 0.75, 12.947824, 16.206829)" fill="none" stroke-linejoin="miter" d="M 26.257069 11.75027 L 6.87686 11.75027 C 5.579985 11.75027 4.340401 11.234645 3.428943 10.323187 C 2.512276 9.40652 2.00186 8.166937 2.00186 6.87527 C 2.00186 5.583603 2.512276 4.34402 3.428943 3.427353 C 4.340401 2.515895 5.579985 2.00027 6.87686 2.00027 L 43.772695 2.00027 " stroke="#ff3131" stroke-width="4" stroke-opacity="1" stroke-miterlimit="4"/><path stroke-linecap="butt" transform="matrix(0.75, 0, 0, 0.75, 45.776482, 16.206829)" fill="none" stroke-linejoin="miter" d="M 23.443858 11.75027 L 38.808443 11.75027 C 40.100109 11.75027 41.339693 11.234645 42.256359 10.323187 C 43.167818 9.40652 43.683443 8.166937 43.683443 6.87527 C 43.683443 5.583603 43.167818 4.34402 42.256359 3.427353 C 41.339693 2.515895 40.100109 2.00027 38.808443 2.00027 L 0.00114885 2.00027 " stroke="#ff3131" stroke-width="4" stroke-opacity="1" stroke-miterlimit="4"/><path stroke-linecap="butt" transform="matrix(0.75, 0, 0, 0.75, 28.206369, 4.318009)" fill="none" stroke-linejoin="miter" d="M 2.000883 17.852031 L 2.000883 9.924947 C 2.000883 5.549947 5.547758 1.997863 9.927966 1.997863 L 38.943593 1.997863 C 43.323801 1.997863 46.870677 5.549947 46.870677 9.924947 L 46.870677 17.852031 " stroke="#ff3131" stroke-width="4" stroke-opacity="1" stroke-miterlimit="4"/></svg>