<svg xmlns="http://www.w3.org/2000/svg" width="44.975" height="45.73" viewBox="0 0 44.975 45.73">
  <g id="Group_10518" data-name="Group 10518" transform="translate(6264.469 -512)">
    <path id="Path_18409" data-name="Path 18409" d="M0,17.942a1.659,1.659,0,0,1,1.8-1.1c1.357.033,2.716.006,4.074.01a1.442,1.442,0,0,1,1.645,1.633q0,6.557,0,13.113a1.437,1.437,0,0,1-1.651,1.62c-1.327,0-2.655-.035-3.98.013A1.77,1.77,0,0,1,0,32.185Z" transform="translate(-6264.469 524.5)" fill="#7871ff"/>
    <path id="Path_18410" data-name="Path 18410" d="M82.465,15.452v-.46c0-3.122.007-6.245-.009-9.367,0-.394.115-.516.5-.495a3.018,3.018,0,0,0,1.516-.05c.361-.211.468-.845.707-1.282A5.639,5.639,0,0,1,90.326.626c3.106-.039,6.214-.034,9.32,0a3.009,3.009,0,1,1-.032,6.018c-1.42.031-2.841,0-4.262.012a2.381,2.381,0,0,0-.736.09,1.383,1.383,0,0,0-.92,1.381A1.422,1.422,0,0,0,94.816,9.4a1.286,1.286,0,0,0,.277.043c1.919-.013,3.84.014,5.757-.062A4.05,4.05,0,0,0,103.533,8q3.272-3.286,6.558-6.557a4.574,4.574,0,0,1,6.452-.209,1.393,1.393,0,0,1,.084,2.174q-5.14,5.159-10.306,10.293a6.051,6.051,0,0,1-4.359,1.771c-6.385.019-12.771.009-19.156.009-.092,0-.183-.013-.341-.026" transform="translate(-6336.604 539.23)" fill="#f43397"/>
    <rect id="Rectangle_4398" data-name="Rectangle 4398" width="44.975" height="18.5" transform="translate(-6264.469 539.23)" fill="none"/>
    <circle id="Ellipse_747" data-name="Ellipse 747" cx="11.707" cy="11.707" r="11.707" transform="translate(-6252.34 512)" fill="#f43397"/>
    <g id="rupee-indian-_2_" transform="translate(-6243.797 519.637)">
      <path id="Path_18419" data-name="Path 18419" d="M93.126-512.047c-.122.052-.126.07-.126.668,0,.52,0,.543.041.594.078.1.074.1.92.111a3.828,3.828,0,0,1,1.32.128,1.569,1.569,0,0,1,.7.427,1.015,1.015,0,0,1,.148.221c0,.01-.674.017-1.5.017h-1.5l-.066.066-.066.066v.444c0,.485,0,.5.116.559a11.023,11.023,0,0,0,1.584.029h1.528l-.012.056a1.386,1.386,0,0,1-.233.439,1.972,1.972,0,0,1-1.229.633,5.343,5.343,0,0,1-.92.054c-.743.014-.74.012-.8.12-.027.045-.031.128-.031.561a3.257,3.257,0,0,0,.021.545c.012.021.179.212.373.423.708.767,1.6,1.788,2.651,3.036a9.036,9.036,0,0,0,.617.695c.025.01.377.017.784.017.817,0,.821,0,.879-.124.068-.146.1-.093-.567-.9-.936-1.134-1.815-2.158-2.387-2.781a3.9,3.9,0,0,1-.291-.334,1.03,1.03,0,0,1,.151-.029,3.083,3.083,0,0,0,2.436-1.6,2.83,2.83,0,0,0,.223-.666l.025-.14h.619a2.607,2.607,0,0,0,.675-.029c.113-.058.116-.074.116-.557v-.443l-.056-.062-.056-.064-.656-.01-.656-.01-.054-.194a2.938,2.938,0,0,0-.309-.681.96.96,0,0,1-.076-.13c0-.008.388-.014.862-.014h.862l.06-.058c.074-.076.085-.163.078-.607-.008-.309-.012-.346-.049-.4a.293.293,0,0,0-.087-.078C99.118-512.086,93.21-512.084,93.126-512.047Z" transform="translate(-93 512.076)" fill="#fff"/>
    </g>
  </g>
</svg>
