<svg xmlns="http://www.w3.org/2000/svg" xmlns:xlink="http://www.w3.org/1999/xlink" width="128" zoomAndPan="magnify" viewBox="0 0 96 95.999999" height="128" preserveAspectRatio="xMidYMid meet" version="1.0">
	<path stroke-linecap="round" transform="matrix(0.533049, -0.527597, 0.527597, 0.533049, 12.712742, 63.557643)" fill="none" stroke-linejoin="miter" d="M 2.000149 2.003456 L 62.219177 1.999551 " stroke="#3b82f6" stroke-width="4" stroke-opacity="1" stroke-miterlimit="4"/>
	<path stroke-linecap="round" transform="matrix(0.542781, -0.51758, 0.51758, 0.542781, 31.502599, 78.589745)" fill="none" stroke-linejoin="miter" d="M 2.001181 2.002007 L 92.536406 2.001699 " stroke="#3b82f6" stroke-width="4" stroke-opacity="1" stroke-miterlimit="4"/>
	<path stroke-linecap="butt" transform="matrix(0.528058, -0.532592, 0.532592, 0.528058, 20.574221, 67.613144)" fill="none" stroke-linejoin="miter" d="M 0.00236882 1.999942 L 80.609595 2.001986 " stroke="#3b82f6" stroke-width="4" stroke-opacity="1" stroke-miterlimit="4"/>
	<path stroke-linecap="butt" transform="matrix(0.528058, -0.532592, 0.532592, 0.528058, 25.650975, 72.623069)" fill="none" stroke-linejoin="miter" d="M -0.00170953 1.999225 L 80.612882 2.0013 " stroke="#3b82f6" stroke-width="4" stroke-opacity="1" stroke-miterlimit="4"/>
	<path stroke-linecap="butt" transform="matrix(0.516344, 0.543956, -0.543956, 0.516344, 60.453276, 19.02459)" fill="none" stroke-linejoin="miter" d="M 0.0029469 1.999443 L 30.407801 1.99973 " stroke="#3b82f6" stroke-width="4" stroke-opacity="1" stroke-miterlimit="4"/>
	<path stroke-linecap="round" transform="matrix(0.531167, -0.529492, 0.529492, 0.531167, 49.57742, 27.122244)" fill="none" stroke-linejoin="miter" d="M 2.001014 1.999892 L 33.1027 1.998637 " stroke="#3b82f6" stroke-width="4" stroke-opacity="1" stroke-miterlimit="4"/>
	<path stroke-linecap="round" transform="matrix(0.542579, 0.517792, -0.517792, 0.542579, 15.709784, 60.683336)" fill="none" stroke-linejoin="miter" d="M 1.999071 2.002011 L 32.593553 1.998822 " stroke="#3b82f6" stroke-width="4" stroke-opacity="1" stroke-miterlimit="4"/>
	<path stroke-linecap="round" transform="matrix(0.724482, 0.193973, -0.193973, 0.724482, 69.390218, 2.638402)" fill="none" stroke-linejoin="miter" d="M 2.014186 6.9368 C 1.685501 0.0100934 7.933849 0.369859 20.749168 8.018792 " stroke="#3b82f6" stroke-width="4" stroke-opacity="1" stroke-miterlimit="4"/>
	<path stroke-linecap="round" transform="matrix(0.153003, 0.734228, -0.734228, 0.153003, 90.693584, 11.177912)" fill="none" stroke-linejoin="miter" d="M 2.904042 8.338403 C 14.739753 0.100522 19.869214 -0.107422 18.292423 7.714569 " stroke="#3b82f6" stroke-width="4" stroke-opacity="1" stroke-miterlimit="4"/>
	<path stroke-linecap="round" transform="matrix(0.202071, -0.722265, 0.722265, 0.202071, 5.01525, 88.522483)" fill="none" stroke-linejoin="miter" d="M 2.099156 1.998413 C 12.786251 1.999253 23.468331 2.001496 34.155426 2.002336 " stroke="#3b82f6" stroke-width="4" stroke-opacity="1" stroke-miterlimit="4"/>
	<path stroke-linecap="round" transform="matrix(0.720583, -0.207991, 0.207991, 0.720583, 6.047621, 87.490471)" fill="none" stroke-linejoin="miter" d="M 2.00191 2.000509 C 8.816309 1.999625 15.630709 1.99874 22.43866 2.001416 " stroke="#3b82f6" stroke-width="4" stroke-opacity="1" stroke-miterlimit="4"/>
	<path stroke-linecap="round" transform="matrix(-0.667115, 0.34272, -0.34272, -0.667115, 35.324384, 79.77864)" fill="none" stroke-linejoin="miter" d="M 1.999455 2.001134 L 13.681284 2.000671 " stroke="#3b82f6" stroke-width="4" stroke-opacity="1" stroke-miterlimit="4"/>
	<path stroke-linecap="butt" transform="matrix(0.516344, 0.543956, -0.543956, 0.516344, 66.382247, 13.50112)" fill="none" stroke-linejoin="miter" d="M 0.0000490898 2.002558 L 30.408489 1.999067 " stroke="#3b82f6" stroke-width="4" stroke-opacity="1" stroke-miterlimit="4"/>
</svg>